<mxfile host="app.diagrams.net" agent="Mozilla/5.0 (Windows NT 10.0; Win64; x64) AppleWebKit/537.36 (KHTML, like Gecko) Chrome/136.0.0.0 Safari/537.36" version="26.0.6">
  <diagram name="Page-1" id="66V9HbaZ8azy0n-Os36N">
    <mxGraphModel dx="1750" dy="902" grid="1" gridSize="10" guides="1" tooltips="1" connect="1" arrows="1" fold="1" page="1" pageScale="1" pageWidth="827" pageHeight="1169" math="0" shadow="0">
      <root>
        <mxCell id="0" />
        <mxCell id="1" parent="0" />
        <mxCell id="uFexuFH9o8UG8JEzXYWe-1" value="Users" style="shape=table;startSize=25;container=1;collapsible=0;childLayout=tableLayout;fixedRows=1;rowLines=1;fontStyle=1;align=center;resizeLast=1;" vertex="1" parent="1">
          <mxGeometry x="110" y="20" width="128" height="157" as="geometry" />
        </mxCell>
        <mxCell id="uFexuFH9o8UG8JEzXYWe-2" style="shape=tableRow;horizontal=0;startSize=0;swimlaneHead=0;swimlaneBody=0;fillColor=none;collapsible=0;dropTarget=0;points=[[0,0.5],[1,0.5]];portConstraint=eastwest;top=0;left=0;right=0;bottom=0;" vertex="1" parent="uFexuFH9o8UG8JEzXYWe-1">
          <mxGeometry y="25" width="128" height="22" as="geometry" />
        </mxCell>
        <mxCell id="uFexuFH9o8UG8JEzXYWe-3" value="INT" style="shape=partialRectangle;connectable=0;fillColor=none;top=0;left=0;bottom=0;right=0;align=left;spacingLeft=2;overflow=hidden;fontSize=11;" vertex="1" parent="uFexuFH9o8UG8JEzXYWe-2">
          <mxGeometry width="42" height="22" as="geometry">
            <mxRectangle width="42" height="22" as="alternateBounds" />
          </mxGeometry>
        </mxCell>
        <mxCell id="uFexuFH9o8UG8JEzXYWe-4" value="UserID" style="shape=partialRectangle;connectable=0;fillColor=none;top=0;left=0;bottom=0;right=0;align=left;spacingLeft=2;overflow=hidden;fontSize=11;" vertex="1" parent="uFexuFH9o8UG8JEzXYWe-2">
          <mxGeometry x="42" width="64" height="22" as="geometry">
            <mxRectangle width="64" height="22" as="alternateBounds" />
          </mxGeometry>
        </mxCell>
        <mxCell id="uFexuFH9o8UG8JEzXYWe-5" value="PK" style="shape=partialRectangle;connectable=0;fillColor=none;top=0;left=0;bottom=0;right=0;align=left;spacingLeft=2;overflow=hidden;fontSize=11;" vertex="1" parent="uFexuFH9o8UG8JEzXYWe-2">
          <mxGeometry x="106" width="22" height="22" as="geometry">
            <mxRectangle width="22" height="22" as="alternateBounds" />
          </mxGeometry>
        </mxCell>
        <mxCell id="uFexuFH9o8UG8JEzXYWe-6" style="shape=tableRow;horizontal=0;startSize=0;swimlaneHead=0;swimlaneBody=0;fillColor=none;collapsible=0;dropTarget=0;points=[[0,0.5],[1,0.5]];portConstraint=eastwest;top=0;left=0;right=0;bottom=0;" vertex="1" parent="uFexuFH9o8UG8JEzXYWe-1">
          <mxGeometry y="47" width="128" height="22" as="geometry" />
        </mxCell>
        <mxCell id="uFexuFH9o8UG8JEzXYWe-7" value="VARCHAR" style="shape=partialRectangle;connectable=0;fillColor=none;top=0;left=0;bottom=0;right=0;align=left;spacingLeft=2;overflow=hidden;fontSize=11;" vertex="1" parent="uFexuFH9o8UG8JEzXYWe-6">
          <mxGeometry width="42" height="22" as="geometry">
            <mxRectangle width="42" height="22" as="alternateBounds" />
          </mxGeometry>
        </mxCell>
        <mxCell id="uFexuFH9o8UG8JEzXYWe-8" value="FullName" style="shape=partialRectangle;connectable=0;fillColor=none;top=0;left=0;bottom=0;right=0;align=left;spacingLeft=2;overflow=hidden;fontSize=11;" vertex="1" parent="uFexuFH9o8UG8JEzXYWe-6">
          <mxGeometry x="42" width="64" height="22" as="geometry">
            <mxRectangle width="64" height="22" as="alternateBounds" />
          </mxGeometry>
        </mxCell>
        <mxCell id="uFexuFH9o8UG8JEzXYWe-9" value="" style="shape=partialRectangle;connectable=0;fillColor=none;top=0;left=0;bottom=0;right=0;align=left;spacingLeft=2;overflow=hidden;fontSize=11;" vertex="1" parent="uFexuFH9o8UG8JEzXYWe-6">
          <mxGeometry x="106" width="22" height="22" as="geometry">
            <mxRectangle width="22" height="22" as="alternateBounds" />
          </mxGeometry>
        </mxCell>
        <mxCell id="uFexuFH9o8UG8JEzXYWe-10" style="shape=tableRow;horizontal=0;startSize=0;swimlaneHead=0;swimlaneBody=0;fillColor=none;collapsible=0;dropTarget=0;points=[[0,0.5],[1,0.5]];portConstraint=eastwest;top=0;left=0;right=0;bottom=0;" vertex="1" parent="uFexuFH9o8UG8JEzXYWe-1">
          <mxGeometry y="69" width="128" height="22" as="geometry" />
        </mxCell>
        <mxCell id="uFexuFH9o8UG8JEzXYWe-11" value="VARCHAR" style="shape=partialRectangle;connectable=0;fillColor=none;top=0;left=0;bottom=0;right=0;align=left;spacingLeft=2;overflow=hidden;fontSize=11;" vertex="1" parent="uFexuFH9o8UG8JEzXYWe-10">
          <mxGeometry width="42" height="22" as="geometry">
            <mxRectangle width="42" height="22" as="alternateBounds" />
          </mxGeometry>
        </mxCell>
        <mxCell id="uFexuFH9o8UG8JEzXYWe-12" value="Email" style="shape=partialRectangle;connectable=0;fillColor=none;top=0;left=0;bottom=0;right=0;align=left;spacingLeft=2;overflow=hidden;fontSize=11;" vertex="1" parent="uFexuFH9o8UG8JEzXYWe-10">
          <mxGeometry x="42" width="64" height="22" as="geometry">
            <mxRectangle width="64" height="22" as="alternateBounds" />
          </mxGeometry>
        </mxCell>
        <mxCell id="uFexuFH9o8UG8JEzXYWe-13" value="" style="shape=partialRectangle;connectable=0;fillColor=none;top=0;left=0;bottom=0;right=0;align=left;spacingLeft=2;overflow=hidden;fontSize=11;" vertex="1" parent="uFexuFH9o8UG8JEzXYWe-10">
          <mxGeometry x="106" width="22" height="22" as="geometry">
            <mxRectangle width="22" height="22" as="alternateBounds" />
          </mxGeometry>
        </mxCell>
        <mxCell id="uFexuFH9o8UG8JEzXYWe-14" style="shape=tableRow;horizontal=0;startSize=0;swimlaneHead=0;swimlaneBody=0;fillColor=none;collapsible=0;dropTarget=0;points=[[0,0.5],[1,0.5]];portConstraint=eastwest;top=0;left=0;right=0;bottom=0;" vertex="1" parent="uFexuFH9o8UG8JEzXYWe-1">
          <mxGeometry y="91" width="128" height="22" as="geometry" />
        </mxCell>
        <mxCell id="uFexuFH9o8UG8JEzXYWe-15" value="VARCHAR" style="shape=partialRectangle;connectable=0;fillColor=none;top=0;left=0;bottom=0;right=0;align=left;spacingLeft=2;overflow=hidden;fontSize=11;" vertex="1" parent="uFexuFH9o8UG8JEzXYWe-14">
          <mxGeometry width="42" height="22" as="geometry">
            <mxRectangle width="42" height="22" as="alternateBounds" />
          </mxGeometry>
        </mxCell>
        <mxCell id="uFexuFH9o8UG8JEzXYWe-16" value="Password" style="shape=partialRectangle;connectable=0;fillColor=none;top=0;left=0;bottom=0;right=0;align=left;spacingLeft=2;overflow=hidden;fontSize=11;" vertex="1" parent="uFexuFH9o8UG8JEzXYWe-14">
          <mxGeometry x="42" width="64" height="22" as="geometry">
            <mxRectangle width="64" height="22" as="alternateBounds" />
          </mxGeometry>
        </mxCell>
        <mxCell id="uFexuFH9o8UG8JEzXYWe-17" value="" style="shape=partialRectangle;connectable=0;fillColor=none;top=0;left=0;bottom=0;right=0;align=left;spacingLeft=2;overflow=hidden;fontSize=11;" vertex="1" parent="uFexuFH9o8UG8JEzXYWe-14">
          <mxGeometry x="106" width="22" height="22" as="geometry">
            <mxRectangle width="22" height="22" as="alternateBounds" />
          </mxGeometry>
        </mxCell>
        <mxCell id="uFexuFH9o8UG8JEzXYWe-18" style="shape=tableRow;horizontal=0;startSize=0;swimlaneHead=0;swimlaneBody=0;fillColor=none;collapsible=0;dropTarget=0;points=[[0,0.5],[1,0.5]];portConstraint=eastwest;top=0;left=0;right=0;bottom=0;" vertex="1" parent="uFexuFH9o8UG8JEzXYWe-1">
          <mxGeometry y="113" width="128" height="22" as="geometry" />
        </mxCell>
        <mxCell id="uFexuFH9o8UG8JEzXYWe-19" value="VARCHAR" style="shape=partialRectangle;connectable=0;fillColor=none;top=0;left=0;bottom=0;right=0;align=left;spacingLeft=2;overflow=hidden;fontSize=11;" vertex="1" parent="uFexuFH9o8UG8JEzXYWe-18">
          <mxGeometry width="42" height="22" as="geometry">
            <mxRectangle width="42" height="22" as="alternateBounds" />
          </mxGeometry>
        </mxCell>
        <mxCell id="uFexuFH9o8UG8JEzXYWe-20" value="Salt" style="shape=partialRectangle;connectable=0;fillColor=none;top=0;left=0;bottom=0;right=0;align=left;spacingLeft=2;overflow=hidden;fontSize=11;" vertex="1" parent="uFexuFH9o8UG8JEzXYWe-18">
          <mxGeometry x="42" width="64" height="22" as="geometry">
            <mxRectangle width="64" height="22" as="alternateBounds" />
          </mxGeometry>
        </mxCell>
        <mxCell id="uFexuFH9o8UG8JEzXYWe-21" value="" style="shape=partialRectangle;connectable=0;fillColor=none;top=0;left=0;bottom=0;right=0;align=left;spacingLeft=2;overflow=hidden;fontSize=11;" vertex="1" parent="uFexuFH9o8UG8JEzXYWe-18">
          <mxGeometry x="106" width="22" height="22" as="geometry">
            <mxRectangle width="22" height="22" as="alternateBounds" />
          </mxGeometry>
        </mxCell>
        <mxCell id="uFexuFH9o8UG8JEzXYWe-22" style="shape=tableRow;horizontal=0;startSize=0;swimlaneHead=0;swimlaneBody=0;fillColor=none;collapsible=0;dropTarget=0;points=[[0,0.5],[1,0.5]];portConstraint=eastwest;top=0;left=0;right=0;bottom=0;" vertex="1" parent="uFexuFH9o8UG8JEzXYWe-1">
          <mxGeometry y="135" width="128" height="22" as="geometry" />
        </mxCell>
        <mxCell id="uFexuFH9o8UG8JEzXYWe-23" value="VARCHAR" style="shape=partialRectangle;connectable=0;fillColor=none;top=0;left=0;bottom=0;right=0;align=left;spacingLeft=2;overflow=hidden;fontSize=11;" vertex="1" parent="uFexuFH9o8UG8JEzXYWe-22">
          <mxGeometry width="42" height="22" as="geometry">
            <mxRectangle width="42" height="22" as="alternateBounds" />
          </mxGeometry>
        </mxCell>
        <mxCell id="uFexuFH9o8UG8JEzXYWe-24" value="Role" style="shape=partialRectangle;connectable=0;fillColor=none;top=0;left=0;bottom=0;right=0;align=left;spacingLeft=2;overflow=hidden;fontSize=11;" vertex="1" parent="uFexuFH9o8UG8JEzXYWe-22">
          <mxGeometry x="42" width="64" height="22" as="geometry">
            <mxRectangle width="64" height="22" as="alternateBounds" />
          </mxGeometry>
        </mxCell>
        <mxCell id="uFexuFH9o8UG8JEzXYWe-25" value="" style="shape=partialRectangle;connectable=0;fillColor=none;top=0;left=0;bottom=0;right=0;align=left;spacingLeft=2;overflow=hidden;fontSize=11;" vertex="1" parent="uFexuFH9o8UG8JEzXYWe-22">
          <mxGeometry x="106" width="22" height="22" as="geometry">
            <mxRectangle width="22" height="22" as="alternateBounds" />
          </mxGeometry>
        </mxCell>
        <mxCell id="uFexuFH9o8UG8JEzXYWe-26" value="Services" style="shape=table;startSize=25;container=1;collapsible=0;childLayout=tableLayout;fixedRows=1;rowLines=1;fontStyle=1;align=center;resizeLast=1;" vertex="1" parent="1">
          <mxGeometry x="530" y="20" width="176" height="267" as="geometry" />
        </mxCell>
        <mxCell id="uFexuFH9o8UG8JEzXYWe-27" style="shape=tableRow;horizontal=0;startSize=0;swimlaneHead=0;swimlaneBody=0;fillColor=none;collapsible=0;dropTarget=0;points=[[0,0.5],[1,0.5]];portConstraint=eastwest;top=0;left=0;right=0;bottom=0;" vertex="1" parent="uFexuFH9o8UG8JEzXYWe-26">
          <mxGeometry y="25" width="176" height="22" as="geometry" />
        </mxCell>
        <mxCell id="uFexuFH9o8UG8JEzXYWe-28" value="INT" style="shape=partialRectangle;connectable=0;fillColor=none;top=0;left=0;bottom=0;right=0;align=left;spacingLeft=2;overflow=hidden;fontSize=11;" vertex="1" parent="uFexuFH9o8UG8JEzXYWe-27">
          <mxGeometry width="48" height="22" as="geometry">
            <mxRectangle width="48" height="22" as="alternateBounds" />
          </mxGeometry>
        </mxCell>
        <mxCell id="uFexuFH9o8UG8JEzXYWe-29" value="ServiceID" style="shape=partialRectangle;connectable=0;fillColor=none;top=0;left=0;bottom=0;right=0;align=left;spacingLeft=2;overflow=hidden;fontSize=11;" vertex="1" parent="uFexuFH9o8UG8JEzXYWe-27">
          <mxGeometry x="48" width="106" height="22" as="geometry">
            <mxRectangle width="106" height="22" as="alternateBounds" />
          </mxGeometry>
        </mxCell>
        <mxCell id="uFexuFH9o8UG8JEzXYWe-30" value="PK" style="shape=partialRectangle;connectable=0;fillColor=none;top=0;left=0;bottom=0;right=0;align=left;spacingLeft=2;overflow=hidden;fontSize=11;" vertex="1" parent="uFexuFH9o8UG8JEzXYWe-27">
          <mxGeometry x="154" width="22" height="22" as="geometry">
            <mxRectangle width="22" height="22" as="alternateBounds" />
          </mxGeometry>
        </mxCell>
        <mxCell id="uFexuFH9o8UG8JEzXYWe-31" style="shape=tableRow;horizontal=0;startSize=0;swimlaneHead=0;swimlaneBody=0;fillColor=none;collapsible=0;dropTarget=0;points=[[0,0.5],[1,0.5]];portConstraint=eastwest;top=0;left=0;right=0;bottom=0;" vertex="1" parent="uFexuFH9o8UG8JEzXYWe-26">
          <mxGeometry y="47" width="176" height="22" as="geometry" />
        </mxCell>
        <mxCell id="uFexuFH9o8UG8JEzXYWe-32" value="NVARCHAR" style="shape=partialRectangle;connectable=0;fillColor=none;top=0;left=0;bottom=0;right=0;align=left;spacingLeft=2;overflow=hidden;fontSize=11;" vertex="1" parent="uFexuFH9o8UG8JEzXYWe-31">
          <mxGeometry width="48" height="22" as="geometry">
            <mxRectangle width="48" height="22" as="alternateBounds" />
          </mxGeometry>
        </mxCell>
        <mxCell id="uFexuFH9o8UG8JEzXYWe-33" value="ServiceTitle" style="shape=partialRectangle;connectable=0;fillColor=none;top=0;left=0;bottom=0;right=0;align=left;spacingLeft=2;overflow=hidden;fontSize=11;" vertex="1" parent="uFexuFH9o8UG8JEzXYWe-31">
          <mxGeometry x="48" width="106" height="22" as="geometry">
            <mxRectangle width="106" height="22" as="alternateBounds" />
          </mxGeometry>
        </mxCell>
        <mxCell id="uFexuFH9o8UG8JEzXYWe-34" value="" style="shape=partialRectangle;connectable=0;fillColor=none;top=0;left=0;bottom=0;right=0;align=left;spacingLeft=2;overflow=hidden;fontSize=11;" vertex="1" parent="uFexuFH9o8UG8JEzXYWe-31">
          <mxGeometry x="154" width="22" height="22" as="geometry">
            <mxRectangle width="22" height="22" as="alternateBounds" />
          </mxGeometry>
        </mxCell>
        <mxCell id="uFexuFH9o8UG8JEzXYWe-35" style="shape=tableRow;horizontal=0;startSize=0;swimlaneHead=0;swimlaneBody=0;fillColor=none;collapsible=0;dropTarget=0;points=[[0,0.5],[1,0.5]];portConstraint=eastwest;top=0;left=0;right=0;bottom=0;" vertex="1" parent="uFexuFH9o8UG8JEzXYWe-26">
          <mxGeometry y="69" width="176" height="22" as="geometry" />
        </mxCell>
        <mxCell id="uFexuFH9o8UG8JEzXYWe-36" value="NVARCHAR" style="shape=partialRectangle;connectable=0;fillColor=none;top=0;left=0;bottom=0;right=0;align=left;spacingLeft=2;overflow=hidden;fontSize=11;" vertex="1" parent="uFexuFH9o8UG8JEzXYWe-35">
          <mxGeometry width="48" height="22" as="geometry">
            <mxRectangle width="48" height="22" as="alternateBounds" />
          </mxGeometry>
        </mxCell>
        <mxCell id="uFexuFH9o8UG8JEzXYWe-37" value="ServiceCategory" style="shape=partialRectangle;connectable=0;fillColor=none;top=0;left=0;bottom=0;right=0;align=left;spacingLeft=2;overflow=hidden;fontSize=11;" vertex="1" parent="uFexuFH9o8UG8JEzXYWe-35">
          <mxGeometry x="48" width="106" height="22" as="geometry">
            <mxRectangle width="106" height="22" as="alternateBounds" />
          </mxGeometry>
        </mxCell>
        <mxCell id="uFexuFH9o8UG8JEzXYWe-38" value="" style="shape=partialRectangle;connectable=0;fillColor=none;top=0;left=0;bottom=0;right=0;align=left;spacingLeft=2;overflow=hidden;fontSize=11;" vertex="1" parent="uFexuFH9o8UG8JEzXYWe-35">
          <mxGeometry x="154" width="22" height="22" as="geometry">
            <mxRectangle width="22" height="22" as="alternateBounds" />
          </mxGeometry>
        </mxCell>
        <mxCell id="uFexuFH9o8UG8JEzXYWe-39" style="shape=tableRow;horizontal=0;startSize=0;swimlaneHead=0;swimlaneBody=0;fillColor=none;collapsible=0;dropTarget=0;points=[[0,0.5],[1,0.5]];portConstraint=eastwest;top=0;left=0;right=0;bottom=0;" vertex="1" parent="uFexuFH9o8UG8JEzXYWe-26">
          <mxGeometry y="91" width="176" height="22" as="geometry" />
        </mxCell>
        <mxCell id="uFexuFH9o8UG8JEzXYWe-40" value="NVARCHAR" style="shape=partialRectangle;connectable=0;fillColor=none;top=0;left=0;bottom=0;right=0;align=left;spacingLeft=2;overflow=hidden;fontSize=11;" vertex="1" parent="uFexuFH9o8UG8JEzXYWe-39">
          <mxGeometry width="48" height="22" as="geometry">
            <mxRectangle width="48" height="22" as="alternateBounds" />
          </mxGeometry>
        </mxCell>
        <mxCell id="uFexuFH9o8UG8JEzXYWe-41" value="Description" style="shape=partialRectangle;connectable=0;fillColor=none;top=0;left=0;bottom=0;right=0;align=left;spacingLeft=2;overflow=hidden;fontSize=11;" vertex="1" parent="uFexuFH9o8UG8JEzXYWe-39">
          <mxGeometry x="48" width="106" height="22" as="geometry">
            <mxRectangle width="106" height="22" as="alternateBounds" />
          </mxGeometry>
        </mxCell>
        <mxCell id="uFexuFH9o8UG8JEzXYWe-42" value="" style="shape=partialRectangle;connectable=0;fillColor=none;top=0;left=0;bottom=0;right=0;align=left;spacingLeft=2;overflow=hidden;fontSize=11;" vertex="1" parent="uFexuFH9o8UG8JEzXYWe-39">
          <mxGeometry x="154" width="22" height="22" as="geometry">
            <mxRectangle width="22" height="22" as="alternateBounds" />
          </mxGeometry>
        </mxCell>
        <mxCell id="uFexuFH9o8UG8JEzXYWe-43" style="shape=tableRow;horizontal=0;startSize=0;swimlaneHead=0;swimlaneBody=0;fillColor=none;collapsible=0;dropTarget=0;points=[[0,0.5],[1,0.5]];portConstraint=eastwest;top=0;left=0;right=0;bottom=0;" vertex="1" parent="uFexuFH9o8UG8JEzXYWe-26">
          <mxGeometry y="113" width="176" height="22" as="geometry" />
        </mxCell>
        <mxCell id="uFexuFH9o8UG8JEzXYWe-44" value="DECIMAL" style="shape=partialRectangle;connectable=0;fillColor=none;top=0;left=0;bottom=0;right=0;align=left;spacingLeft=2;overflow=hidden;fontSize=11;" vertex="1" parent="uFexuFH9o8UG8JEzXYWe-43">
          <mxGeometry width="48" height="22" as="geometry">
            <mxRectangle width="48" height="22" as="alternateBounds" />
          </mxGeometry>
        </mxCell>
        <mxCell id="uFexuFH9o8UG8JEzXYWe-45" value="Price" style="shape=partialRectangle;connectable=0;fillColor=none;top=0;left=0;bottom=0;right=0;align=left;spacingLeft=2;overflow=hidden;fontSize=11;" vertex="1" parent="uFexuFH9o8UG8JEzXYWe-43">
          <mxGeometry x="48" width="106" height="22" as="geometry">
            <mxRectangle width="106" height="22" as="alternateBounds" />
          </mxGeometry>
        </mxCell>
        <mxCell id="uFexuFH9o8UG8JEzXYWe-46" value="" style="shape=partialRectangle;connectable=0;fillColor=none;top=0;left=0;bottom=0;right=0;align=left;spacingLeft=2;overflow=hidden;fontSize=11;" vertex="1" parent="uFexuFH9o8UG8JEzXYWe-43">
          <mxGeometry x="154" width="22" height="22" as="geometry">
            <mxRectangle width="22" height="22" as="alternateBounds" />
          </mxGeometry>
        </mxCell>
        <mxCell id="uFexuFH9o8UG8JEzXYWe-47" style="shape=tableRow;horizontal=0;startSize=0;swimlaneHead=0;swimlaneBody=0;fillColor=none;collapsible=0;dropTarget=0;points=[[0,0.5],[1,0.5]];portConstraint=eastwest;top=0;left=0;right=0;bottom=0;" vertex="1" parent="uFexuFH9o8UG8JEzXYWe-26">
          <mxGeometry y="135" width="176" height="22" as="geometry" />
        </mxCell>
        <mxCell id="uFexuFH9o8UG8JEzXYWe-48" value="BIT" style="shape=partialRectangle;connectable=0;fillColor=none;top=0;left=0;bottom=0;right=0;align=left;spacingLeft=2;overflow=hidden;fontSize=11;" vertex="1" parent="uFexuFH9o8UG8JEzXYWe-47">
          <mxGeometry width="48" height="22" as="geometry">
            <mxRectangle width="48" height="22" as="alternateBounds" />
          </mxGeometry>
        </mxCell>
        <mxCell id="uFexuFH9o8UG8JEzXYWe-49" value="IsAvailable" style="shape=partialRectangle;connectable=0;fillColor=none;top=0;left=0;bottom=0;right=0;align=left;spacingLeft=2;overflow=hidden;fontSize=11;" vertex="1" parent="uFexuFH9o8UG8JEzXYWe-47">
          <mxGeometry x="48" width="106" height="22" as="geometry">
            <mxRectangle width="106" height="22" as="alternateBounds" />
          </mxGeometry>
        </mxCell>
        <mxCell id="uFexuFH9o8UG8JEzXYWe-50" value="" style="shape=partialRectangle;connectable=0;fillColor=none;top=0;left=0;bottom=0;right=0;align=left;spacingLeft=2;overflow=hidden;fontSize=11;" vertex="1" parent="uFexuFH9o8UG8JEzXYWe-47">
          <mxGeometry x="154" width="22" height="22" as="geometry">
            <mxRectangle width="22" height="22" as="alternateBounds" />
          </mxGeometry>
        </mxCell>
        <mxCell id="uFexuFH9o8UG8JEzXYWe-51" style="shape=tableRow;horizontal=0;startSize=0;swimlaneHead=0;swimlaneBody=0;fillColor=none;collapsible=0;dropTarget=0;points=[[0,0.5],[1,0.5]];portConstraint=eastwest;top=0;left=0;right=0;bottom=0;" vertex="1" parent="uFexuFH9o8UG8JEzXYWe-26">
          <mxGeometry y="157" width="176" height="22" as="geometry" />
        </mxCell>
        <mxCell id="uFexuFH9o8UG8JEzXYWe-52" value="NVARCHAR" style="shape=partialRectangle;connectable=0;fillColor=none;top=0;left=0;bottom=0;right=0;align=left;spacingLeft=2;overflow=hidden;fontSize=11;" vertex="1" parent="uFexuFH9o8UG8JEzXYWe-51">
          <mxGeometry width="48" height="22" as="geometry">
            <mxRectangle width="48" height="22" as="alternateBounds" />
          </mxGeometry>
        </mxCell>
        <mxCell id="uFexuFH9o8UG8JEzXYWe-53" value="EstimatedDuration" style="shape=partialRectangle;connectable=0;fillColor=none;top=0;left=0;bottom=0;right=0;align=left;spacingLeft=2;overflow=hidden;fontSize=11;" vertex="1" parent="uFexuFH9o8UG8JEzXYWe-51">
          <mxGeometry x="48" width="106" height="22" as="geometry">
            <mxRectangle width="106" height="22" as="alternateBounds" />
          </mxGeometry>
        </mxCell>
        <mxCell id="uFexuFH9o8UG8JEzXYWe-54" value="" style="shape=partialRectangle;connectable=0;fillColor=none;top=0;left=0;bottom=0;right=0;align=left;spacingLeft=2;overflow=hidden;fontSize=11;" vertex="1" parent="uFexuFH9o8UG8JEzXYWe-51">
          <mxGeometry x="154" width="22" height="22" as="geometry">
            <mxRectangle width="22" height="22" as="alternateBounds" />
          </mxGeometry>
        </mxCell>
        <mxCell id="uFexuFH9o8UG8JEzXYWe-55" style="shape=tableRow;horizontal=0;startSize=0;swimlaneHead=0;swimlaneBody=0;fillColor=none;collapsible=0;dropTarget=0;points=[[0,0.5],[1,0.5]];portConstraint=eastwest;top=0;left=0;right=0;bottom=0;" vertex="1" parent="uFexuFH9o8UG8JEzXYWe-26">
          <mxGeometry y="179" width="176" height="22" as="geometry" />
        </mxCell>
        <mxCell id="uFexuFH9o8UG8JEzXYWe-56" value="DATETIME" style="shape=partialRectangle;connectable=0;fillColor=none;top=0;left=0;bottom=0;right=0;align=left;spacingLeft=2;overflow=hidden;fontSize=11;" vertex="1" parent="uFexuFH9o8UG8JEzXYWe-55">
          <mxGeometry width="48" height="22" as="geometry">
            <mxRectangle width="48" height="22" as="alternateBounds" />
          </mxGeometry>
        </mxCell>
        <mxCell id="uFexuFH9o8UG8JEzXYWe-57" value="CreatedDate" style="shape=partialRectangle;connectable=0;fillColor=none;top=0;left=0;bottom=0;right=0;align=left;spacingLeft=2;overflow=hidden;fontSize=11;" vertex="1" parent="uFexuFH9o8UG8JEzXYWe-55">
          <mxGeometry x="48" width="106" height="22" as="geometry">
            <mxRectangle width="106" height="22" as="alternateBounds" />
          </mxGeometry>
        </mxCell>
        <mxCell id="uFexuFH9o8UG8JEzXYWe-58" value="" style="shape=partialRectangle;connectable=0;fillColor=none;top=0;left=0;bottom=0;right=0;align=left;spacingLeft=2;overflow=hidden;fontSize=11;" vertex="1" parent="uFexuFH9o8UG8JEzXYWe-55">
          <mxGeometry x="154" width="22" height="22" as="geometry">
            <mxRectangle width="22" height="22" as="alternateBounds" />
          </mxGeometry>
        </mxCell>
        <mxCell id="uFexuFH9o8UG8JEzXYWe-59" style="shape=tableRow;horizontal=0;startSize=0;swimlaneHead=0;swimlaneBody=0;fillColor=none;collapsible=0;dropTarget=0;points=[[0,0.5],[1,0.5]];portConstraint=eastwest;top=0;left=0;right=0;bottom=0;" vertex="1" parent="uFexuFH9o8UG8JEzXYWe-26">
          <mxGeometry y="201" width="176" height="22" as="geometry" />
        </mxCell>
        <mxCell id="uFexuFH9o8UG8JEzXYWe-60" value="DATETIME" style="shape=partialRectangle;connectable=0;fillColor=none;top=0;left=0;bottom=0;right=0;align=left;spacingLeft=2;overflow=hidden;fontSize=11;" vertex="1" parent="uFexuFH9o8UG8JEzXYWe-59">
          <mxGeometry width="48" height="22" as="geometry">
            <mxRectangle width="48" height="22" as="alternateBounds" />
          </mxGeometry>
        </mxCell>
        <mxCell id="uFexuFH9o8UG8JEzXYWe-61" value="LastModified" style="shape=partialRectangle;connectable=0;fillColor=none;top=0;left=0;bottom=0;right=0;align=left;spacingLeft=2;overflow=hidden;fontSize=11;" vertex="1" parent="uFexuFH9o8UG8JEzXYWe-59">
          <mxGeometry x="48" width="106" height="22" as="geometry">
            <mxRectangle width="106" height="22" as="alternateBounds" />
          </mxGeometry>
        </mxCell>
        <mxCell id="uFexuFH9o8UG8JEzXYWe-62" value="" style="shape=partialRectangle;connectable=0;fillColor=none;top=0;left=0;bottom=0;right=0;align=left;spacingLeft=2;overflow=hidden;fontSize=11;" vertex="1" parent="uFexuFH9o8UG8JEzXYWe-59">
          <mxGeometry x="154" width="22" height="22" as="geometry">
            <mxRectangle width="22" height="22" as="alternateBounds" />
          </mxGeometry>
        </mxCell>
        <mxCell id="uFexuFH9o8UG8JEzXYWe-63" style="shape=tableRow;horizontal=0;startSize=0;swimlaneHead=0;swimlaneBody=0;fillColor=none;collapsible=0;dropTarget=0;points=[[0,0.5],[1,0.5]];portConstraint=eastwest;top=0;left=0;right=0;bottom=0;" vertex="1" parent="uFexuFH9o8UG8JEzXYWe-26">
          <mxGeometry y="223" width="176" height="22" as="geometry" />
        </mxCell>
        <mxCell id="uFexuFH9o8UG8JEzXYWe-64" value="INT" style="shape=partialRectangle;connectable=0;fillColor=none;top=0;left=0;bottom=0;right=0;align=left;spacingLeft=2;overflow=hidden;fontSize=11;" vertex="1" parent="uFexuFH9o8UG8JEzXYWe-63">
          <mxGeometry width="48" height="22" as="geometry">
            <mxRectangle width="48" height="22" as="alternateBounds" />
          </mxGeometry>
        </mxCell>
        <mxCell id="uFexuFH9o8UG8JEzXYWe-65" value="UserID" style="shape=partialRectangle;connectable=0;fillColor=none;top=0;left=0;bottom=0;right=0;align=left;spacingLeft=2;overflow=hidden;fontSize=11;" vertex="1" parent="uFexuFH9o8UG8JEzXYWe-63">
          <mxGeometry x="48" width="106" height="22" as="geometry">
            <mxRectangle width="106" height="22" as="alternateBounds" />
          </mxGeometry>
        </mxCell>
        <mxCell id="uFexuFH9o8UG8JEzXYWe-66" value="FK" style="shape=partialRectangle;connectable=0;fillColor=none;top=0;left=0;bottom=0;right=0;align=left;spacingLeft=2;overflow=hidden;fontSize=11;" vertex="1" parent="uFexuFH9o8UG8JEzXYWe-63">
          <mxGeometry x="154" width="22" height="22" as="geometry">
            <mxRectangle width="22" height="22" as="alternateBounds" />
          </mxGeometry>
        </mxCell>
        <mxCell id="uFexuFH9o8UG8JEzXYWe-67" style="shape=tableRow;horizontal=0;startSize=0;swimlaneHead=0;swimlaneBody=0;fillColor=none;collapsible=0;dropTarget=0;points=[[0,0.5],[1,0.5]];portConstraint=eastwest;top=0;left=0;right=0;bottom=0;" vertex="1" parent="uFexuFH9o8UG8JEzXYWe-26">
          <mxGeometry y="245" width="176" height="22" as="geometry" />
        </mxCell>
        <mxCell id="uFexuFH9o8UG8JEzXYWe-68" value="BIT" style="shape=partialRectangle;connectable=0;fillColor=none;top=0;left=0;bottom=0;right=0;align=left;spacingLeft=2;overflow=hidden;fontSize=11;" vertex="1" parent="uFexuFH9o8UG8JEzXYWe-67">
          <mxGeometry width="48" height="22" as="geometry">
            <mxRectangle width="48" height="22" as="alternateBounds" />
          </mxGeometry>
        </mxCell>
        <mxCell id="uFexuFH9o8UG8JEzXYWe-69" value="Publish" style="shape=partialRectangle;connectable=0;fillColor=none;top=0;left=0;bottom=0;right=0;align=left;spacingLeft=2;overflow=hidden;fontSize=11;" vertex="1" parent="uFexuFH9o8UG8JEzXYWe-67">
          <mxGeometry x="48" width="106" height="22" as="geometry">
            <mxRectangle width="106" height="22" as="alternateBounds" />
          </mxGeometry>
        </mxCell>
        <mxCell id="uFexuFH9o8UG8JEzXYWe-70" value="" style="shape=partialRectangle;connectable=0;fillColor=none;top=0;left=0;bottom=0;right=0;align=left;spacingLeft=2;overflow=hidden;fontSize=11;" vertex="1" parent="uFexuFH9o8UG8JEzXYWe-67">
          <mxGeometry x="154" width="22" height="22" as="geometry">
            <mxRectangle width="22" height="22" as="alternateBounds" />
          </mxGeometry>
        </mxCell>
        <mxCell id="uFexuFH9o8UG8JEzXYWe-71" value="Booking" style="shape=table;startSize=25;container=1;collapsible=0;childLayout=tableLayout;fixedRows=1;rowLines=1;fontStyle=1;align=center;resizeLast=1;" vertex="1" parent="1">
          <mxGeometry x="95" y="480" width="143" height="135" as="geometry" />
        </mxCell>
        <mxCell id="uFexuFH9o8UG8JEzXYWe-72" style="shape=tableRow;horizontal=0;startSize=0;swimlaneHead=0;swimlaneBody=0;fillColor=none;collapsible=0;dropTarget=0;points=[[0,0.5],[1,0.5]];portConstraint=eastwest;top=0;left=0;right=0;bottom=0;" vertex="1" parent="uFexuFH9o8UG8JEzXYWe-71">
          <mxGeometry y="25" width="143" height="22" as="geometry" />
        </mxCell>
        <mxCell id="uFexuFH9o8UG8JEzXYWe-73" value="INT" style="shape=partialRectangle;connectable=0;fillColor=none;top=0;left=0;bottom=0;right=0;align=left;spacingLeft=2;overflow=hidden;fontSize=11;" vertex="1" parent="uFexuFH9o8UG8JEzXYWe-72">
          <mxGeometry width="48" height="22" as="geometry">
            <mxRectangle width="48" height="22" as="alternateBounds" />
          </mxGeometry>
        </mxCell>
        <mxCell id="uFexuFH9o8UG8JEzXYWe-74" value="BookingID" style="shape=partialRectangle;connectable=0;fillColor=none;top=0;left=0;bottom=0;right=0;align=left;spacingLeft=2;overflow=hidden;fontSize=11;" vertex="1" parent="uFexuFH9o8UG8JEzXYWe-72">
          <mxGeometry x="48" width="73" height="22" as="geometry">
            <mxRectangle width="73" height="22" as="alternateBounds" />
          </mxGeometry>
        </mxCell>
        <mxCell id="uFexuFH9o8UG8JEzXYWe-75" value="PK" style="shape=partialRectangle;connectable=0;fillColor=none;top=0;left=0;bottom=0;right=0;align=left;spacingLeft=2;overflow=hidden;fontSize=11;" vertex="1" parent="uFexuFH9o8UG8JEzXYWe-72">
          <mxGeometry x="121" width="22" height="22" as="geometry">
            <mxRectangle width="22" height="22" as="alternateBounds" />
          </mxGeometry>
        </mxCell>
        <mxCell id="uFexuFH9o8UG8JEzXYWe-76" style="shape=tableRow;horizontal=0;startSize=0;swimlaneHead=0;swimlaneBody=0;fillColor=none;collapsible=0;dropTarget=0;points=[[0,0.5],[1,0.5]];portConstraint=eastwest;top=0;left=0;right=0;bottom=0;" vertex="1" parent="uFexuFH9o8UG8JEzXYWe-71">
          <mxGeometry y="47" width="143" height="22" as="geometry" />
        </mxCell>
        <mxCell id="uFexuFH9o8UG8JEzXYWe-77" value="INT" style="shape=partialRectangle;connectable=0;fillColor=none;top=0;left=0;bottom=0;right=0;align=left;spacingLeft=2;overflow=hidden;fontSize=11;" vertex="1" parent="uFexuFH9o8UG8JEzXYWe-76">
          <mxGeometry width="48" height="22" as="geometry">
            <mxRectangle width="48" height="22" as="alternateBounds" />
          </mxGeometry>
        </mxCell>
        <mxCell id="uFexuFH9o8UG8JEzXYWe-78" value="ServiceID" style="shape=partialRectangle;connectable=0;fillColor=none;top=0;left=0;bottom=0;right=0;align=left;spacingLeft=2;overflow=hidden;fontSize=11;" vertex="1" parent="uFexuFH9o8UG8JEzXYWe-76">
          <mxGeometry x="48" width="73" height="22" as="geometry">
            <mxRectangle width="73" height="22" as="alternateBounds" />
          </mxGeometry>
        </mxCell>
        <mxCell id="uFexuFH9o8UG8JEzXYWe-79" value="FK" style="shape=partialRectangle;connectable=0;fillColor=none;top=0;left=0;bottom=0;right=0;align=left;spacingLeft=2;overflow=hidden;fontSize=11;" vertex="1" parent="uFexuFH9o8UG8JEzXYWe-76">
          <mxGeometry x="121" width="22" height="22" as="geometry">
            <mxRectangle width="22" height="22" as="alternateBounds" />
          </mxGeometry>
        </mxCell>
        <mxCell id="uFexuFH9o8UG8JEzXYWe-80" style="shape=tableRow;horizontal=0;startSize=0;swimlaneHead=0;swimlaneBody=0;fillColor=none;collapsible=0;dropTarget=0;points=[[0,0.5],[1,0.5]];portConstraint=eastwest;top=0;left=0;right=0;bottom=0;" vertex="1" parent="uFexuFH9o8UG8JEzXYWe-71">
          <mxGeometry y="69" width="143" height="22" as="geometry" />
        </mxCell>
        <mxCell id="uFexuFH9o8UG8JEzXYWe-81" value="INT" style="shape=partialRectangle;connectable=0;fillColor=none;top=0;left=0;bottom=0;right=0;align=left;spacingLeft=2;overflow=hidden;fontSize=11;" vertex="1" parent="uFexuFH9o8UG8JEzXYWe-80">
          <mxGeometry width="48" height="22" as="geometry">
            <mxRectangle width="48" height="22" as="alternateBounds" />
          </mxGeometry>
        </mxCell>
        <mxCell id="uFexuFH9o8UG8JEzXYWe-82" value="CustomerID" style="shape=partialRectangle;connectable=0;fillColor=none;top=0;left=0;bottom=0;right=0;align=left;spacingLeft=2;overflow=hidden;fontSize=11;" vertex="1" parent="uFexuFH9o8UG8JEzXYWe-80">
          <mxGeometry x="48" width="73" height="22" as="geometry">
            <mxRectangle width="73" height="22" as="alternateBounds" />
          </mxGeometry>
        </mxCell>
        <mxCell id="uFexuFH9o8UG8JEzXYWe-83" value="FK" style="shape=partialRectangle;connectable=0;fillColor=none;top=0;left=0;bottom=0;right=0;align=left;spacingLeft=2;overflow=hidden;fontSize=11;" vertex="1" parent="uFexuFH9o8UG8JEzXYWe-80">
          <mxGeometry x="121" width="22" height="22" as="geometry">
            <mxRectangle width="22" height="22" as="alternateBounds" />
          </mxGeometry>
        </mxCell>
        <mxCell id="uFexuFH9o8UG8JEzXYWe-84" style="shape=tableRow;horizontal=0;startSize=0;swimlaneHead=0;swimlaneBody=0;fillColor=none;collapsible=0;dropTarget=0;points=[[0,0.5],[1,0.5]];portConstraint=eastwest;top=0;left=0;right=0;bottom=0;" vertex="1" parent="uFexuFH9o8UG8JEzXYWe-71">
          <mxGeometry y="91" width="143" height="22" as="geometry" />
        </mxCell>
        <mxCell id="uFexuFH9o8UG8JEzXYWe-85" value="DATETIME" style="shape=partialRectangle;connectable=0;fillColor=none;top=0;left=0;bottom=0;right=0;align=left;spacingLeft=2;overflow=hidden;fontSize=11;" vertex="1" parent="uFexuFH9o8UG8JEzXYWe-84">
          <mxGeometry width="48" height="22" as="geometry">
            <mxRectangle width="48" height="22" as="alternateBounds" />
          </mxGeometry>
        </mxCell>
        <mxCell id="uFexuFH9o8UG8JEzXYWe-86" value="BookingDate" style="shape=partialRectangle;connectable=0;fillColor=none;top=0;left=0;bottom=0;right=0;align=left;spacingLeft=2;overflow=hidden;fontSize=11;" vertex="1" parent="uFexuFH9o8UG8JEzXYWe-84">
          <mxGeometry x="48" width="73" height="22" as="geometry">
            <mxRectangle width="73" height="22" as="alternateBounds" />
          </mxGeometry>
        </mxCell>
        <mxCell id="uFexuFH9o8UG8JEzXYWe-87" value="" style="shape=partialRectangle;connectable=0;fillColor=none;top=0;left=0;bottom=0;right=0;align=left;spacingLeft=2;overflow=hidden;fontSize=11;" vertex="1" parent="uFexuFH9o8UG8JEzXYWe-84">
          <mxGeometry x="121" width="22" height="22" as="geometry">
            <mxRectangle width="22" height="22" as="alternateBounds" />
          </mxGeometry>
        </mxCell>
        <mxCell id="uFexuFH9o8UG8JEzXYWe-88" style="shape=tableRow;horizontal=0;startSize=0;swimlaneHead=0;swimlaneBody=0;fillColor=none;collapsible=0;dropTarget=0;points=[[0,0.5],[1,0.5]];portConstraint=eastwest;top=0;left=0;right=0;bottom=0;" vertex="1" parent="uFexuFH9o8UG8JEzXYWe-71">
          <mxGeometry y="113" width="143" height="22" as="geometry" />
        </mxCell>
        <mxCell id="uFexuFH9o8UG8JEzXYWe-89" value="BIT" style="shape=partialRectangle;connectable=0;fillColor=none;top=0;left=0;bottom=0;right=0;align=left;spacingLeft=2;overflow=hidden;fontSize=11;" vertex="1" parent="uFexuFH9o8UG8JEzXYWe-88">
          <mxGeometry width="48" height="22" as="geometry">
            <mxRectangle width="48" height="22" as="alternateBounds" />
          </mxGeometry>
        </mxCell>
        <mxCell id="uFexuFH9o8UG8JEzXYWe-90" value="Status" style="shape=partialRectangle;connectable=0;fillColor=none;top=0;left=0;bottom=0;right=0;align=left;spacingLeft=2;overflow=hidden;fontSize=11;" vertex="1" parent="uFexuFH9o8UG8JEzXYWe-88">
          <mxGeometry x="48" width="73" height="22" as="geometry">
            <mxRectangle width="73" height="22" as="alternateBounds" />
          </mxGeometry>
        </mxCell>
        <mxCell id="uFexuFH9o8UG8JEzXYWe-91" value="" style="shape=partialRectangle;connectable=0;fillColor=none;top=0;left=0;bottom=0;right=0;align=left;spacingLeft=2;overflow=hidden;fontSize=11;" vertex="1" parent="uFexuFH9o8UG8JEzXYWe-88">
          <mxGeometry x="121" width="22" height="22" as="geometry">
            <mxRectangle width="22" height="22" as="alternateBounds" />
          </mxGeometry>
        </mxCell>
        <mxCell id="uFexuFH9o8UG8JEzXYWe-92" value="ServiceAudit" style="shape=table;startSize=25;container=1;collapsible=0;childLayout=tableLayout;fixedRows=1;rowLines=1;fontStyle=1;align=center;resizeLast=1;" vertex="1" parent="1">
          <mxGeometry x="550" y="510" width="142" height="159" as="geometry" />
        </mxCell>
        <mxCell id="uFexuFH9o8UG8JEzXYWe-93" style="shape=tableRow;horizontal=0;startSize=0;swimlaneHead=0;swimlaneBody=0;fillColor=none;collapsible=0;dropTarget=0;points=[[0,0.5],[1,0.5]];portConstraint=eastwest;top=0;left=0;right=0;bottom=0;" vertex="1" parent="uFexuFH9o8UG8JEzXYWe-92">
          <mxGeometry y="25" width="142" height="22" as="geometry" />
        </mxCell>
        <mxCell id="uFexuFH9o8UG8JEzXYWe-94" value="INT" style="shape=partialRectangle;connectable=0;fillColor=none;top=0;left=0;bottom=0;right=0;align=left;spacingLeft=2;overflow=hidden;fontSize=11;" vertex="1" parent="uFexuFH9o8UG8JEzXYWe-93">
          <mxGeometry width="48" height="22" as="geometry">
            <mxRectangle width="48" height="22" as="alternateBounds" />
          </mxGeometry>
        </mxCell>
        <mxCell id="uFexuFH9o8UG8JEzXYWe-95" value="AuditID" style="shape=partialRectangle;connectable=0;fillColor=none;top=0;left=0;bottom=0;right=0;align=left;spacingLeft=2;overflow=hidden;fontSize=11;" vertex="1" parent="uFexuFH9o8UG8JEzXYWe-93">
          <mxGeometry x="48" width="72" height="22" as="geometry">
            <mxRectangle width="72" height="22" as="alternateBounds" />
          </mxGeometry>
        </mxCell>
        <mxCell id="uFexuFH9o8UG8JEzXYWe-96" value="PK" style="shape=partialRectangle;connectable=0;fillColor=none;top=0;left=0;bottom=0;right=0;align=left;spacingLeft=2;overflow=hidden;fontSize=11;" vertex="1" parent="uFexuFH9o8UG8JEzXYWe-93">
          <mxGeometry x="120" width="22" height="22" as="geometry">
            <mxRectangle width="22" height="22" as="alternateBounds" />
          </mxGeometry>
        </mxCell>
        <mxCell id="uFexuFH9o8UG8JEzXYWe-97" style="shape=tableRow;horizontal=0;startSize=0;swimlaneHead=0;swimlaneBody=0;fillColor=none;collapsible=0;dropTarget=0;points=[[0,0.5],[1,0.5]];portConstraint=eastwest;top=0;left=0;right=0;bottom=0;" vertex="1" parent="uFexuFH9o8UG8JEzXYWe-92">
          <mxGeometry y="47" width="142" height="22" as="geometry" />
        </mxCell>
        <mxCell id="uFexuFH9o8UG8JEzXYWe-98" value="INT" style="shape=partialRectangle;connectable=0;fillColor=none;top=0;left=0;bottom=0;right=0;align=left;spacingLeft=2;overflow=hidden;fontSize=11;" vertex="1" parent="uFexuFH9o8UG8JEzXYWe-97">
          <mxGeometry width="48" height="22" as="geometry">
            <mxRectangle width="48" height="22" as="alternateBounds" />
          </mxGeometry>
        </mxCell>
        <mxCell id="uFexuFH9o8UG8JEzXYWe-99" value="ServiceID" style="shape=partialRectangle;connectable=0;fillColor=none;top=0;left=0;bottom=0;right=0;align=left;spacingLeft=2;overflow=hidden;fontSize=11;" vertex="1" parent="uFexuFH9o8UG8JEzXYWe-97">
          <mxGeometry x="48" width="72" height="22" as="geometry">
            <mxRectangle width="72" height="22" as="alternateBounds" />
          </mxGeometry>
        </mxCell>
        <mxCell id="uFexuFH9o8UG8JEzXYWe-100" value="FK" style="shape=partialRectangle;connectable=0;fillColor=none;top=0;left=0;bottom=0;right=0;align=left;spacingLeft=2;overflow=hidden;fontSize=11;" vertex="1" parent="uFexuFH9o8UG8JEzXYWe-97">
          <mxGeometry x="120" width="22" height="22" as="geometry">
            <mxRectangle width="22" height="22" as="alternateBounds" />
          </mxGeometry>
        </mxCell>
        <mxCell id="uFexuFH9o8UG8JEzXYWe-101" style="shape=tableRow;horizontal=0;startSize=0;swimlaneHead=0;swimlaneBody=0;fillColor=none;collapsible=0;dropTarget=0;points=[[0,0.5],[1,0.5]];portConstraint=eastwest;top=0;left=0;right=0;bottom=0;" vertex="1" parent="uFexuFH9o8UG8JEzXYWe-92">
          <mxGeometry y="69" width="142" height="22" as="geometry" />
        </mxCell>
        <mxCell id="uFexuFH9o8UG8JEzXYWe-102" value="NVARCHAR" style="shape=partialRectangle;connectable=0;fillColor=none;top=0;left=0;bottom=0;right=0;align=left;spacingLeft=2;overflow=hidden;fontSize=11;" vertex="1" parent="uFexuFH9o8UG8JEzXYWe-101">
          <mxGeometry width="48" height="22" as="geometry">
            <mxRectangle width="48" height="22" as="alternateBounds" />
          </mxGeometry>
        </mxCell>
        <mxCell id="uFexuFH9o8UG8JEzXYWe-103" value="ActionType" style="shape=partialRectangle;connectable=0;fillColor=none;top=0;left=0;bottom=0;right=0;align=left;spacingLeft=2;overflow=hidden;fontSize=11;" vertex="1" parent="uFexuFH9o8UG8JEzXYWe-101">
          <mxGeometry x="48" width="72" height="22" as="geometry">
            <mxRectangle width="72" height="22" as="alternateBounds" />
          </mxGeometry>
        </mxCell>
        <mxCell id="uFexuFH9o8UG8JEzXYWe-104" value="" style="shape=partialRectangle;connectable=0;fillColor=none;top=0;left=0;bottom=0;right=0;align=left;spacingLeft=2;overflow=hidden;fontSize=11;" vertex="1" parent="uFexuFH9o8UG8JEzXYWe-101">
          <mxGeometry x="120" width="22" height="22" as="geometry">
            <mxRectangle width="22" height="22" as="alternateBounds" />
          </mxGeometry>
        </mxCell>
        <mxCell id="uFexuFH9o8UG8JEzXYWe-105" style="shape=tableRow;horizontal=0;startSize=0;swimlaneHead=0;swimlaneBody=0;fillColor=none;collapsible=0;dropTarget=0;points=[[0,0.5],[1,0.5]];portConstraint=eastwest;top=0;left=0;right=0;bottom=0;" vertex="1" parent="uFexuFH9o8UG8JEzXYWe-92">
          <mxGeometry y="91" width="142" height="22" as="geometry" />
        </mxCell>
        <mxCell id="uFexuFH9o8UG8JEzXYWe-106" value="DATETIME" style="shape=partialRectangle;connectable=0;fillColor=none;top=0;left=0;bottom=0;right=0;align=left;spacingLeft=2;overflow=hidden;fontSize=11;" vertex="1" parent="uFexuFH9o8UG8JEzXYWe-105">
          <mxGeometry width="48" height="22" as="geometry">
            <mxRectangle width="48" height="22" as="alternateBounds" />
          </mxGeometry>
        </mxCell>
        <mxCell id="uFexuFH9o8UG8JEzXYWe-107" value="ActionDate" style="shape=partialRectangle;connectable=0;fillColor=none;top=0;left=0;bottom=0;right=0;align=left;spacingLeft=2;overflow=hidden;fontSize=11;" vertex="1" parent="uFexuFH9o8UG8JEzXYWe-105">
          <mxGeometry x="48" width="72" height="22" as="geometry">
            <mxRectangle width="72" height="22" as="alternateBounds" />
          </mxGeometry>
        </mxCell>
        <mxCell id="uFexuFH9o8UG8JEzXYWe-108" value="" style="shape=partialRectangle;connectable=0;fillColor=none;top=0;left=0;bottom=0;right=0;align=left;spacingLeft=2;overflow=hidden;fontSize=11;" vertex="1" parent="uFexuFH9o8UG8JEzXYWe-105">
          <mxGeometry x="120" width="22" height="22" as="geometry">
            <mxRectangle width="22" height="22" as="alternateBounds" />
          </mxGeometry>
        </mxCell>
        <mxCell id="uFexuFH9o8UG8JEzXYWe-109" style="shape=tableRow;horizontal=0;startSize=0;swimlaneHead=0;swimlaneBody=0;fillColor=none;collapsible=0;dropTarget=0;points=[[0,0.5],[1,0.5]];portConstraint=eastwest;top=0;left=0;right=0;bottom=0;" vertex="1" parent="uFexuFH9o8UG8JEzXYWe-92">
          <mxGeometry y="113" width="142" height="22" as="geometry" />
        </mxCell>
        <mxCell id="uFexuFH9o8UG8JEzXYWe-110" value="NVARCHAR" style="shape=partialRectangle;connectable=0;fillColor=none;top=0;left=0;bottom=0;right=0;align=left;spacingLeft=2;overflow=hidden;fontSize=11;" vertex="1" parent="uFexuFH9o8UG8JEzXYWe-109">
          <mxGeometry width="48" height="22" as="geometry">
            <mxRectangle width="48" height="22" as="alternateBounds" />
          </mxGeometry>
        </mxCell>
        <mxCell id="uFexuFH9o8UG8JEzXYWe-111" value="OldData" style="shape=partialRectangle;connectable=0;fillColor=none;top=0;left=0;bottom=0;right=0;align=left;spacingLeft=2;overflow=hidden;fontSize=11;" vertex="1" parent="uFexuFH9o8UG8JEzXYWe-109">
          <mxGeometry x="48" width="72" height="22" as="geometry">
            <mxRectangle width="72" height="22" as="alternateBounds" />
          </mxGeometry>
        </mxCell>
        <mxCell id="uFexuFH9o8UG8JEzXYWe-112" value="" style="shape=partialRectangle;connectable=0;fillColor=none;top=0;left=0;bottom=0;right=0;align=left;spacingLeft=2;overflow=hidden;fontSize=11;" vertex="1" parent="uFexuFH9o8UG8JEzXYWe-109">
          <mxGeometry x="120" width="22" height="22" as="geometry">
            <mxRectangle width="22" height="22" as="alternateBounds" />
          </mxGeometry>
        </mxCell>
        <mxCell id="uFexuFH9o8UG8JEzXYWe-113" style="shape=tableRow;horizontal=0;startSize=0;swimlaneHead=0;swimlaneBody=0;fillColor=none;collapsible=0;dropTarget=0;points=[[0,0.5],[1,0.5]];portConstraint=eastwest;top=0;left=0;right=0;bottom=0;" vertex="1" parent="uFexuFH9o8UG8JEzXYWe-92">
          <mxGeometry y="135" width="142" height="22" as="geometry" />
        </mxCell>
        <mxCell id="uFexuFH9o8UG8JEzXYWe-114" value="NVARCHAR" style="shape=partialRectangle;connectable=0;fillColor=none;top=0;left=0;bottom=0;right=0;align=left;spacingLeft=2;overflow=hidden;fontSize=11;" vertex="1" parent="uFexuFH9o8UG8JEzXYWe-113">
          <mxGeometry width="48" height="22" as="geometry">
            <mxRectangle width="48" height="22" as="alternateBounds" />
          </mxGeometry>
        </mxCell>
        <mxCell id="uFexuFH9o8UG8JEzXYWe-115" value="NewData" style="shape=partialRectangle;connectable=0;fillColor=none;top=0;left=0;bottom=0;right=0;align=left;spacingLeft=2;overflow=hidden;fontSize=11;" vertex="1" parent="uFexuFH9o8UG8JEzXYWe-113">
          <mxGeometry x="48" width="72" height="22" as="geometry">
            <mxRectangle width="72" height="22" as="alternateBounds" />
          </mxGeometry>
        </mxCell>
        <mxCell id="uFexuFH9o8UG8JEzXYWe-116" value="" style="shape=partialRectangle;connectable=0;fillColor=none;top=0;left=0;bottom=0;right=0;align=left;spacingLeft=2;overflow=hidden;fontSize=11;" vertex="1" parent="uFexuFH9o8UG8JEzXYWe-113">
          <mxGeometry x="120" width="22" height="22" as="geometry">
            <mxRectangle width="22" height="22" as="alternateBounds" />
          </mxGeometry>
        </mxCell>
        <mxCell id="uFexuFH9o8UG8JEzXYWe-117" value="provides" style="curved=1;startArrow=ERmandOne;startSize=10;;endArrow=ERzeroToMany;endSize=10;;exitX=1;exitY=0.409;rounded=0;exitDx=0;exitDy=0;exitPerimeter=0;" edge="1" parent="1" source="uFexuFH9o8UG8JEzXYWe-14">
          <mxGeometry relative="1" as="geometry">
            <Array as="points">
              <mxPoint x="370" y="120" />
            </Array>
            <mxPoint x="530" y="120" as="targetPoint" />
          </mxGeometry>
        </mxCell>
        <mxCell id="uFexuFH9o8UG8JEzXYWe-118" value="makes" style="curved=1;startArrow=ERmandOne;startSize=10;;endArrow=ERzeroToMany;endSize=10;;rounded=0;exitX=0.396;exitY=1.07;exitDx=0;exitDy=0;exitPerimeter=0;" edge="1" parent="1">
          <mxGeometry x="-0.3667" relative="1" as="geometry">
            <Array as="points">
              <mxPoint x="160" y="398.46" />
              <mxPoint x="160" y="467" />
            </Array>
            <mxPoint x="160.6880000000001" y="176.99999999999997" as="sourcePoint" />
            <mxPoint x="160" y="458.46" as="targetPoint" />
            <mxPoint as="offset" />
          </mxGeometry>
        </mxCell>
        <mxCell id="uFexuFH9o8UG8JEzXYWe-119" value="contains" style="curved=1;startArrow=ERmandOne;startSize=10;;endArrow=ERzeroToMany;endSize=10;;exitX=0;exitY=0.5;rounded=0;exitDx=0;exitDy=0;" edge="1" parent="1" source="uFexuFH9o8UG8JEzXYWe-51">
          <mxGeometry relative="1" as="geometry">
            <Array as="points">
              <mxPoint x="410" y="170" />
              <mxPoint x="410" y="427" />
              <mxPoint x="400" y="730" />
              <mxPoint x="160" y="720" />
            </Array>
            <mxPoint x="510" y="194" as="sourcePoint" />
            <mxPoint x="165" y="617" as="targetPoint" />
          </mxGeometry>
        </mxCell>
        <mxCell id="uFexuFH9o8UG8JEzXYWe-120" value="audited_by" style="curved=1;startArrow=ERmandOne;startSize=10;;endArrow=ERzeroToMany;endSize=10;;rounded=0;" edge="1" parent="1">
          <mxGeometry x="0.0062" y="49" relative="1" as="geometry">
            <Array as="points" />
            <mxPoint x="641" y="290" as="sourcePoint" />
            <mxPoint x="641" y="510" as="targetPoint" />
            <mxPoint as="offset" />
          </mxGeometry>
        </mxCell>
      </root>
    </mxGraphModel>
  </diagram>
</mxfile>
